<?xml version="1.0" standalone="no"?>
<!DOCTYPE svg PUBLIC "-//W3C//DTD SVG 20010904//EN"
 "http://www.w3.org/TR/2001/REC-SVG-20010904/DTD/svg10.dtd">
<svg version="1.0" xmlns="http://www.w3.org/2000/svg"
 width="1000.000000pt" height="1000.000000pt" viewBox="0 0 1000.000000 1000.000000"
 preserveAspectRatio="xMidYMid meet">
<metadata>
Created by potrace 1.16, written by Peter Selinger 2001-2019
</metadata>
<g transform="translate(0.000000,1000.000000) scale(0.100000,-0.100000)"
fill="#000000" stroke="none">
<path d="M4630 9627 l0 -54 -57 -38 c-32 -21 -99 -68 -150 -104 l-92 -66 0
-85 c-1 -58 2 -80 9 -70 5 8 10 31 10 50 0 51 10 61 48 51 29 -9 33 -7 38 14
3 13 3 32 0 43 -5 16 10 31 78 81 46 33 91 64 100 67 14 6 16 -23 16 -279 0
-222 -3 -288 -13 -294 -7 -4 -47 -49 -89 -99 -152 -180 -247 -266 -430 -387
l-123 -82 -13 -100 c-17 -138 -70 -460 -94 -575 -11 -52 -20 -101 -21 -107 -1
-18 -44 -56 -55 -50 -5 4 -14 31 -21 62 -7 31 -15 54 -18 52 -2 -3 0 -22 6
-44 15 -54 14 -121 -5 -182 -8 -29 -13 -55 -11 -57 5 -6 21 36 37 96 10 42 18
49 102 105 112 73 565 401 631 457 27 22 49 39 51 37 2 -2 1 -70 -2 -152 l-5
-147 -101 -71 c-176 -124 -378 -291 -367 -302 15 -15 42 1 192 115 191 145
271 201 260 181 -27 -50 -91 -107 -217 -192 -77 -52 -166 -115 -199 -141 -105
-81 -362 -260 -374 -260 -7 0 -11 25 -12 68 -2 80 -7 64 -11 -35 -4 -82 0 -85
56 -52 41 24 36 30 62 -81 10 -41 18 -104 18 -140 -1 -62 -29 -190 -43 -190
-4 0 -12 15 -19 33 -6 17 -30 56 -52 85 l-40 52 1 178 c1 153 13 345 18 287 2
-26 50 -174 51 -157 0 8 -10 50 -22 95 -22 86 -27 203 -19 417 3 58 4 246 3
418 l-2 312 -30 0 -31 0 1 -182 c0 -101 1 -197 0 -213 0 -27 -12 -39 -110
-110 -61 -44 -151 -105 -202 -135 -87 -53 -94 -60 -141 -138 -27 -46 -47 -85
-44 -89 4 -3 25 4 49 16 24 12 44 17 46 11 2 -6 8 -10 14 -10 7 0 8 22 3 64
l-6 64 83 47 c46 26 132 82 190 126 96 71 128 90 128 74 0 -4 -16 -71 -36
-151 -19 -80 -34 -150 -31 -157 2 -6 11 15 19 48 14 52 16 56 17 25 0 -19 -6
-91 -14 -160 -16 -141 -31 -345 -48 -660 l-12 -214 -90 -60 c-152 -99 -355
-248 -365 -266 -6 -11 -5 -32 2 -56 14 -52 5 -140 -26 -245 -27 -92 -72 -199
-84 -199 -11 0 -74 -62 -68 -67 3 -3 47 22 99 55 148 96 243 117 426 95 l53
-6 -7 -74 -7 -73 42 0 42 0 -6 -207 c-4 -115 -9 -289 -12 -389 l-6 -180 -57 9
c-31 5 -126 22 -211 38 -85 15 -201 36 -258 45 l-102 17 2 58 c3 65 -5 80 -29
56 -14 -13 -15 -21 -5 -42 13 -29 16 -69 5 -62 -5 3 -26 8 -48 11 -41 7 -55
19 -55 49 0 11 -8 17 -24 17 -21 0 -25 -6 -31 -42 -9 -51 1 -60 85 -78 53 -11
60 -15 54 -33 -6 -20 -12 -45 -13 -61 -1 -5 -14 -6 -30 -3 -24 5 -30 2 -35
-16 -13 -49 -5 -123 18 -174 27 -58 61 -79 204 -132 355 -130 1075 -169 1947
-106 482 35 1179 134 1415 201 100 29 183 81 295 185 116 108 142 125 210 138
61 11 57 -2 -5 -18 -58 -15 -93 -40 -219 -156 -137 -125 -202 -155 -455 -204
-381 -75 -887 -139 -1371 -173 -243 -17 -1030 -17 -1195 0 -203 21 -349 42
-445 64 -92 21 -248 76 -298 104 -16 9 -31 13 -35 9 -14 -13 56 -123 118 -185
36 -36 101 -89 145 -118 l79 -52 1721 0 1720 0 51 29 c51 29 108 91 136 146
19 38 75 210 123 379 55 198 64 215 137 254 34 19 145 85 246 149 101 63 195
119 208 125 28 13 36 31 28 64 -8 32 -38 38 -98 20 l-49 -15 -61 46 c-34 26
-114 92 -180 147 -65 56 -147 124 -182 151 -282 224 -346 289 -537 545 -77
102 -143 184 -149 182 -11 -3 -375 353 -459 450 -51 60 -57 71 -52 100 4 26
-20 109 -95 338 -100 306 -217 698 -209 706 2 2 19 -29 37 -69 18 -39 75 -160
126 -267 50 -107 124 -265 164 -350 124 -265 225 -462 326 -631 54 -90 111
-188 127 -217 16 -29 31 -51 34 -48 5 5 -23 58 -118 218 -101 169 -195 348
-279 528 -114 244 -132 283 -268 565 -106 222 -223 494 -222 521 0 5 21 25 46
44 25 19 52 40 60 47 13 9 13 15 2 32 -7 12 -16 21 -21 21 -7 0 -356 -278
-462 -367 l-39 -34 -26 53 c-36 72 -233 482 -287 596 l-44 93 -3 402 -3 402
-27 3 c-25 3 -26 2 -26 -51z m25 -1037 c14 -151 27 -302 31 -335 l5 -60 -93
-60 c-71 -46 -472 -343 -715 -529 -25 -19 -25 -19 -19 0 26 85 126 672 126
745 0 4 46 34 103 67 199 116 336 236 462 407 50 68 59 77 66 60 5 -11 20
-144 34 -295z m168 -45 c54 -115 122 -257 150 -315 29 -57 53 -107 55 -111 1
-3 -44 -40 -100 -81 -99 -72 -140 -99 -127 -84 4 4 3 24 -2 44 -17 79 -110
769 -108 810 0 9 8 1 17 -18 9 -19 61 -129 115 -245z m646 -268 c16 -51 41
-140 56 -197 40 -160 161 -569 183 -621 l20 -47 -30 -6 c-17 -3 -44 -6 -60 -6
-100 0 -393 -85 -603 -175 -283 -122 -1132 -566 -1208 -633 -9 -8 -39 -55 -65
-104 -26 -48 -50 -88 -54 -88 -10 0 -10 263 -1 338 l6 53 33 -46 c18 -26 41
-67 51 -91 20 -49 33 -57 33 -20 0 13 9 46 21 73 33 75 36 180 10 302 -12 57
-21 104 -19 105 2 2 39 27 83 57 44 29 152 106 241 170 88 65 203 145 255 179
72 47 96 69 102 91 8 31 70 85 167 147 59 38 308 243 630 520 58 50 108 91
112 91 4 1 20 -41 37 -92z m321 -1035 c43 -137 49 -172 26 -153 -47 40 -99
125 -117 193 -25 96 -25 95 16 90 l35 -4 40 -126z m-199 -275 c-21 -21 -31 7
-32 86 -1 45 -5 111 -9 147 -5 42 -6 13 -3 -80 3 -80 6 -150 8 -157 2 -6 -3
-17 -11 -24 -9 -7 -34 -49 -56 -93 -22 -45 -42 -83 -43 -84 -2 -2 -17 -1 -34
3 -22 5 -31 13 -32 28 -2 22 -2 22 -6 0 -2 -13 -6 -23 -8 -23 -2 0 -64 11
-137 25 -73 13 -174 31 -225 39 -172 28 -169 26 -214 119 -21 44 -39 86 -39
92 0 14 233 127 375 183 126 50 307 108 362 116 41 6 42 6 46 -26 l4 -33 1 37
c2 32 5 37 30 40 l27 3 3 -194 c1 -111 -2 -199 -7 -204z m559 -257 c234 -233
294 -299 395 -434 65 -88 135 -178 154 -200 25 -28 11 -19 -45 29 -131 112
-375 272 -574 374 -47 25 -119 70 -160 101 -41 31 -89 64 -107 73 -33 18 -37
28 -48 132 -3 33 -9 76 -12 95 -5 34 -2 32 108 -75 188 -182 509 -474 509
-462 0 3 -62 60 -137 128 -161 144 -461 436 -474 462 -10 17 -39 177 -38 207
0 8 34 -23 76 -70 42 -47 201 -209 353 -360z m-1674 -8 c-35 -194 -145 -745
-149 -747 -1 -1 -42 -16 -92 -34 -49 -19 -182 -73 -295 -121 l-205 -88 -7 86
c-4 48 -11 196 -15 330 -7 223 -7 244 10 265 9 12 36 55 58 95 48 85 38 78
324 234 355 195 400 217 403 196 2 -9 -13 -107 -32 -216z m304 38 c9 -32 38
-88 230 -440 120 -220 170 -323 170 -350 0 -14 -13 -44 -29 -66 -34 -47 -51
-94 -51 -143 -1 -32 -2 -34 -12 -16 -35 60 -147 317 -185 425 -59 168 -223
690 -223 709 1 25 89 -80 100 -119z m115 89 c53 -16 64 -24 91 -66 48 -73 154
-293 154 -319 0 -3 -347 345 -379 380 l-36 39 55 -8 c30 -4 82 -16 115 -26z
m-124 -379 c70 -211 132 -393 139 -404 11 -17 9 -18 -12 -13 -12 3 -60 9 -104
13 -101 8 -212 -7 -336 -46 -51 -16 -96 -30 -99 -30 -3 0 9 69 28 153 39 180
133 675 133 700 0 16 8 18 62 15 l62 -3 127 -385z m349 337 l105 -23 32 -60
c34 -62 179 -423 215 -531 21 -67 34 -84 23 -30 -10 45 -182 490 -216 560
l-29 57 25 0 c14 0 41 -6 60 -14 31 -13 43 -32 124 -198 113 -231 241 -507
241 -519 0 -5 -28 -9 -63 -9 -85 0 -286 -27 -339 -46 -23 -8 -56 -23 -73 -33
l-30 -18 22 66 c41 123 38 204 -13 346 -4 11 40 -25 97 -80 57 -55 122 -116
145 -137 23 -20 51 -48 63 -64 12 -15 24 -25 26 -22 8 8 -29 68 -41 68 -7 0
-83 71 -170 158 l-159 157 -34 90 c-42 111 -78 184 -124 253 -43 63 -44 62
113 29z m-55 -305 c55 -57 105 -114 112 -127 21 -38 53 -168 53 -212 0 -49
-19 -143 -28 -143 -4 0 -70 118 -147 262 -77 144 -168 309 -202 367 -35 58
-63 110 -63 115 0 11 144 -126 275 -262z m388 241 c33 -5 44 -15 85 -72 114
-162 402 -531 492 -630 16 -19 29 -35 28 -37 -2 -1 -39 6 -83 16 -44 10 -120
22 -169 26 l-88 7 -35 76 c-109 239 -191 410 -247 515 -55 101 -61 117 -43
111 12 -3 39 -9 60 -12z m199 -60 c118 -49 309 -169 449 -281 342 -272 852
-632 1102 -779 143 -83 217 -133 217 -144 0 -5 -15 -9 -33 -9 -59 0 -121 24
-752 293 -71 31 -193 84 -270 119 -77 35 -169 75 -205 88 -38 14 -77 37 -93
54 -128 139 -547 675 -547 700 0 12 23 5 132 -41z m-2060 -120 c-1 -27 -9
-127 -17 -223 -8 -96 -18 -226 -21 -288 -7 -109 -8 -113 -28 -107 -12 3 -66 9
-122 12 -118 7 -181 -5 -269 -51 -33 -17 -63 -32 -66 -34 -4 -1 9 38 28 89 49
131 69 236 56 305 -9 53 -9 56 18 78 72 61 395 266 418 266 3 0 5 -21 3 -47z
m2496 -100 c178 -99 351 -219 791 -547 80 -60 189 -143 241 -185 53 -42 109
-86 125 -99 17 -13 23 -20 15 -16 -39 19 -727 481 -812 546 -53 40 -167 127
-254 193 -87 66 -165 125 -173 132 -31 24 2 12 67 -24z m-1366 -455 l1 -33 4
33 c4 30 23 47 23 20 0 -9 3 -9 9 1 7 11 25 13 78 8 90 -7 98 -11 118 -60 37
-87 149 -317 154 -317 3 0 6 28 7 63 0 117 39 181 137 228 32 15 89 33 125 39
76 12 303 29 315 23 4 -3 5 -93 2 -201 -3 -108 -1 -222 4 -252 6 -41 9 0 10
170 1 182 4 221 14 205 9 -15 13 -148 15 -517 3 -460 2 -498 -14 -498 -15 0
-16 21 -9 268 4 147 4 264 1 261 -4 -4 -9 -121 -12 -260 -3 -140 -7 -260 -10
-267 -2 -7 -9 -10 -15 -7 -7 5 -8 51 -4 143 12 295 14 398 6 432 -4 21 -10
-85 -15 -270 -8 -307 -13 -344 -43 -303 -12 16 -13 16 -13 0 0 -9 -8 -17 -17
-17 -10 0 -28 -3 -40 -6 -22 -6 -23 -3 -25 52 l-2 59 -3 -57 c-3 -45 -8 -58
-20 -58 -9 0 -31 -5 -49 -12 -29 -10 -36 -9 -53 6 -19 17 -20 17 -23 -16 -2
-26 -8 -34 -27 -36 -22 -4 -23 -1 -17 35 8 46 16 137 9 107 -3 -16 -9 -20 -24
-17 -10 3 -26 0 -34 -7 -8 -7 -15 -9 -15 -4 0 11 -20 -18 -20 -28 0 -5 7 -8
16 -8 13 0 15 -7 10 -32 -3 -17 -7 -33 -9 -34 -7 -7 -223 -19 -227 -13 -3 5
-48 193 -100 418 -51 226 -96 409 -98 407 -2 -2 37 -186 87 -408 50 -222 91
-410 91 -417 0 -8 -10 -11 -27 -9 -22 2 -29 10 -34 33 l-7 30 -1 -32 -1 -33
-59 0 c-54 0 -59 -2 -65 -24 -10 -40 -77 -92 -127 -99 -24 -4 -161 -12 -304
-18 -599 -27 -1194 29 -1378 129 -47 25 -107 86 -107 107 0 5 9 -4 20 -21 44
-69 141 -112 325 -144 322 -57 692 -77 1075 -60 469 20 490 27 470 161 -7 52
-8 52 -9 13 -1 -41 -2 -42 -41 -46 l-40 -4 0 51 c-3 302 -21 1055 -26 1108 -7
64 -6 67 15 67 17 0 21 -6 23 -32z m1191 -3 c15 -8 25 -10 22 -5 -36 58 226
-197 364 -355 l61 -69 -37 -36 c-21 -20 -106 -102 -189 -183 l-151 -147 -46
222 c-51 245 -107 543 -107 571 0 22 43 23 83 2z m179 -50 c17 -15 45 -43 61
-63 16 -20 43 -54 60 -76 17 -21 37 -46 44 -55 7 -9 13 -13 13 -9 0 4 -36 52
-80 107 -44 56 -75 101 -69 101 15 0 172 -72 353 -161 130 -64 710 -302 804
-330 23 -7 39 -15 35 -19 -4 -4 -57 -24 -117 -44 -59 -20 -144 -55 -188 -77
-44 -22 -83 -38 -86 -35 -3 3 0 17 6 31 16 34 15 37 -5 33 -10 -1 -24 1 -31 6
-9 5 -20 1 -33 -13 -24 -25 -24 -39 -1 -64 16 -19 15 -21 -33 -63 -27 -24 -54
-44 -60 -44 -5 0 -68 57 -140 128 l-130 127 130 -132 c71 -73 127 -134 125
-136 -23 -21 -193 -80 -264 -93 l-39 -7 7 44 c4 24 10 59 13 77 5 31 -8 44
-22 22 -11 -18 -25 -10 -25 14 0 32 -14 40 -34 20 -14 -14 -14 -18 -1 -44 23
-44 18 -55 -10 -23 -27 31 -34 15 -10 -27 22 -39 19 -97 -5 -110 -12 -6 -91
-27 -178 -45 -86 -19 -166 -37 -177 -40 -17 -4 -23 3 -34 40 -7 25 -9 50 -4
58 4 8 108 117 230 241 l222 227 42 -43 42 -43 -37 43 c-20 23 -36 45 -36 48
0 3 38 47 85 97 76 82 83 93 68 105 -9 6 -22 12 -28 12 -6 0 -49 -34 -95 -75
-46 -41 -87 -75 -91 -75 -3 0 -53 51 -110 113 -57 61 -146 156 -198 210 l-95
97 47 -14 c26 -8 61 -26 79 -41z m-1586 -27 c-3 -40 -8 -310 -12 -600 l-7
-528 -23 0 c-24 0 -24 1 -26 113 l-1 112 -7 -110 c-4 -60 -8 -111 -9 -112 0
-2 -8 -3 -16 -3 -11 0 -15 14 -17 58 l-2 57 -3 -57 c-3 -50 -7 -58 -23 -58
-12 0 -20 7 -21 18 0 13 -2 12 -9 -5 -5 -13 -16 -23 -25 -23 -11 0 -15 13 -17
53 l-2 52 -3 -52 c-3 -45 -7 -53 -24 -53 -11 0 -19 7 -20 18 -1 16 -2 16 -6 0
-5 -21 -53 -25 -54 -5 0 10 -2 10 -6 0 -6 -15 -63 -18 -63 -3 0 18 51 273 67
335 14 57 99 467 144 696 11 58 24 111 28 117 7 12 118 49 150 51 11 1 12 -14
7 -71z m-216 -174 c-57 -271 -191 -915 -196 -941 -4 -23 -7 -23 -139 -23
l-134 0 6 30 c7 37 -18 42 -33 8 -6 -13 -9 -18 -8 -11 14 65 15 83 6 83 -11 0
-16 -12 -27 -67 -6 -29 -11 -33 -38 -33 l-32 0 5 446 5 445 120 51 c185 78
500 205 502 203 2 0 -15 -86 -37 -191z m320 -374 c0 -373 -3 -570 -10 -570
-11 0 -15 1122 -3 1133 3 4 8 7 10 7 2 0 3 -256 3 -570z m1250 228 c0 -7 11
-116 25 -242 24 -229 23 -248 -8 -275 -13 -10 -16 5 -21 111 -15 327 -16 418
-6 418 5 0 10 -6 10 -12z m1569 -212 c-2 -2 -51 -31 -108 -65 -57 -34 -116
-72 -132 -85 -38 -33 -238 -94 -253 -79 -3 3 29 27 72 54 42 26 91 59 107 73
l30 24 10 -36 c14 -48 31 -39 27 14 l-3 41 49 6 c26 3 79 17 118 30 69 24 91
30 83 23z m-4299 -403 c0 -14 2 -15 9 -4 9 14 31 12 176 -16 44 -8 83 -20 87
-27 6 -8 8 -8 8 1 0 8 16 7 57 -4 31 -8 69 -15 85 -15 29 -1 29 -1 26 -60 -1
-32 -6 -58 -10 -58 -5 0 -8 6 -9 13 0 10 -2 10 -6 0 -9 -24 -23 -13 -18 15 5
25 5 25 -4 5 -11 -24 -51 -32 -51 -10 0 9 -3 8 -9 -2 -5 -8 -14 -10 -22 -5
-12 7 -45 14 -79 16 -8 1 -18 6 -22 12 -5 7 -8 7 -8 -2 0 -7 -5 -10 -10 -7 -6
4 -7 12 -3 18 5 9 3 9 -8 0 -8 -6 -24 -10 -34 -8 -11 2 -26 4 -32 4 -7 1 -14
9 -14 19 -1 16 -2 16 -6 0 -5 -21 -14 -23 -31 -6 -7 7 -12 8 -12 3 0 -6 -5 -3
-11 5 -7 11 -12 12 -15 3 -7 -17 -34 -4 -27 13 6 16 -22 20 -32 4 -10 -16 -23
-12 -30 10 -10 31 15 100 37 100 10 0 18 -7 18 -17z"/>
<path d="M3614 4138 c-2 -4 46 -46 106 -93 429 -333 807 -499 1220 -535 304
-26 594 2 835 81 199 66 468 222 715 416 63 49 128 98 143 108 15 10 26 19 24
21 -6 7 -3039 9 -3043 2z"/>
<path d="M3450 3101 c-76 -23 -148 -90 -170 -156 -18 -56 -9 -146 20 -188 49
-71 140 -108 231 -93 192 31 279 261 145 384 -60 56 -149 76 -226 53z m146
-112 c71 -66 38 -202 -56 -230 -126 -38 -211 91 -135 207 37 56 142 69 191 23z"/>
<path d="M4773 3090 c-57 -25 -85 -71 -80 -128 6 -56 35 -87 109 -114 68 -24
84 -45 62 -76 -22 -32 -89 -30 -139 4 l-38 26 -31 -32 -31 -31 32 -29 c58 -52
177 -64 252 -25 67 34 92 126 50 180 -12 15 -52 41 -88 58 -67 33 -84 55 -61
82 17 21 79 19 115 -4 l31 -18 33 28 34 28 -28 25 c-52 48 -149 60 -222 26z"/>
<path d="M3916 3088 c-3 -7 -18 -92 -35 -188 -17 -96 -34 -187 -37 -202 l-6
-28 119 0 c184 0 265 35 312 135 30 64 29 170 -1 215 -47 68 -65 75 -214 78
-106 3 -135 1 -138 -10z m231 -93 c57 -40 50 -149 -12 -204 -33 -28 -42 -31
-107 -31 -66 0 -70 1 -65 21 3 11 14 68 23 125 l18 104 61 0 c38 0 69 -6 82
-15z"/>
<path d="M4465 3088 c-2 -7 -17 -92 -34 -188 -17 -96 -34 -188 -37 -203 l-6
-28 53 3 54 3 37 200 c20 110 37 206 37 213 1 8 -15 12 -49 12 -32 0 -52 -5
-55 -12z"/>
<path d="M5175 3088 c-2 -7 -17 -92 -34 -188 -17 -96 -34 -187 -37 -202 l-6
-28 157 0 c116 0 157 3 159 13 3 6 7 27 10 45 l6 32 -106 0 c-105 0 -106 0
-100 23 3 12 6 30 6 40 0 15 11 17 85 17 81 0 85 1 85 23 0 12 3 32 6 45 6 21
5 22 -76 22 -81 0 -82 1 -76 23 3 12 6 30 6 40 0 15 12 17 105 17 76 0 107 4
109 13 3 6 7 27 10 45 l6 32 -156 0 c-115 0 -156 -3 -159 -12z"/>
<path d="M5765 3078 c-2 -13 -16 -83 -29 -156 -15 -86 -30 -140 -41 -152 -23
-25 -65 -26 -96 -1 -25 19 -25 19 -59 -9 l-35 -28 24 -26 c32 -34 84 -50 143
-43 60 7 100 35 123 84 15 32 75 303 75 340 0 9 -15 13 -50 13 -43 0 -50 -3
-55 -22z"/>
<path d="M6035 3088 c-2 -7 -17 -92 -34 -188 -17 -96 -34 -187 -37 -202 l-6
-28 157 0 c116 0 157 3 159 13 3 6 7 27 10 45 l6 32 -106 0 c-105 0 -106 0
-100 23 3 12 6 30 6 40 0 15 11 17 85 17 81 0 85 1 85 23 0 12 3 32 6 45 6 21
5 22 -76 22 -81 0 -82 1 -76 23 3 12 6 30 6 40 0 15 12 17 105 17 76 0 107 4
109 13 3 6 7 27 10 45 l6 32 -156 0 c-115 0 -156 -3 -159 -12z"/>
<path d="M6443 3079 c3 -12 30 -109 59 -215 l53 -194 31 0 c30 0 38 9 152 190
67 104 129 201 138 215 l16 25 -58 0 -59 0 -82 -136 -81 -137 -10 39 c-6 21
-20 83 -32 137 l-22 97 -55 0 c-51 0 -55 -1 -50 -21z"/>
<path d="M4120 2261 c-127 -39 -200 -133 -200 -261 0 -82 23 -134 80 -182 125
-107 345 -56 416 97 30 63 32 161 5 221 -46 101 -187 159 -301 125z m137 -118
c75 -35 91 -150 31 -219 -101 -115 -287 -26 -248 118 28 98 126 144 217 101z"/>
<path d="M6471 2257 c-46 -15 -99 -69 -106 -111 -15 -78 27 -136 121 -171 84
-31 107 -68 62 -99 -41 -29 -120 -16 -166 27 l-23 21 -34 -35 c-33 -33 -34
-36 -19 -57 38 -54 165 -86 252 -63 115 31 169 163 96 232 -14 13 -57 40 -97
59 -77 37 -91 58 -61 91 24 27 82 25 125 -4 l34 -23 37 29 c31 25 36 33 27 49
-28 52 -163 82 -248 55z"/>
<path d="M3445 2163 c-9 -54 -29 -164 -44 -245 l-27 -148 57 0 c65 0 61 -4 78
94 10 53 40 106 61 106 3 0 28 -45 55 -100 l49 -100 63 0 c35 0 63 3 63 6 0 4
-30 64 -67 135 l-68 128 110 111 110 110 -70 0 -70 0 -101 -101 -101 -101 18
94 c10 51 18 96 18 101 1 4 -25 7 -58 7 l-59 0 -17 -97z"/>
<path d="M4661 2228 c-5 -18 -39 -126 -75 -239 -36 -114 -66 -210 -66 -213 0
-4 26 -6 57 -4 l57 3 37 125 36 125 11 -40 c6 -22 21 -79 33 -127 l21 -88 33
0 c32 0 37 6 110 125 72 117 90 142 80 113 -2 -7 -6 -64 -10 -125 l-6 -113 54
0 54 0 7 168 c4 92 9 202 13 245 l6 77 -40 0 -40 0 -98 -161 c-53 -88 -101
-157 -105 -152 -4 4 -22 62 -39 128 -52 194 -48 185 -86 185 -29 0 -35 -4 -44
-32z"/>
<path d="M5315 2163 c-9 -54 -29 -164 -44 -245 l-27 -148 57 0 c65 0 61 -5 79
101 l12 67 86 4 c103 5 159 29 192 83 31 50 33 133 4 172 -38 52 -75 63 -215
63 l-127 0 -17 -97z m243 -15 c21 -21 15 -85 -10 -102 -24 -17 -138 -23 -138
-8 0 5 5 34 11 65 l12 57 56 0 c32 0 62 -5 69 -12z"/>
<path d="M5963 2218 c-14 -24 -81 -128 -148 -233 -66 -104 -124 -196 -129
-202 -5 -10 8 -13 56 -13 l63 0 24 45 24 46 101 -3 100 -3 9 -42 8 -43 60 0
c38 0 59 4 59 12 0 10 -99 373 -121 446 -9 28 -15 32 -45 32 -29 0 -38 -6 -61
-42z"/>
</g>
</svg>
